<svg width="430" height="270" viewBox="0 0 430 270" fill="none" xmlns="http://www.w3.org/2000/svg">
<rect y="0.602295" width="430" height="269.398" rx="15" fill="url(#paint0_linear)"/>
<path d="M110.76 186H66V84H105.787C112.71 84 118.659 84.8269 123.632 86.4807C128.703 88.1345 132.457 90.372 134.895 93.1931C139.576 98.4464 141.916 104.381 141.916 110.996C141.916 118.973 139.381 124.907 134.31 128.798C132.457 130.16 131.19 131.036 130.507 131.425C129.824 131.717 128.605 132.252 126.85 133.03C133.189 134.392 138.211 137.262 141.916 141.639C145.72 145.92 147.621 151.27 147.621 157.691C147.621 164.793 145.183 171.067 140.307 176.515C134.554 182.838 124.705 186 110.76 186ZM83.2604 126.318H105.202C117.684 126.318 123.925 122.086 123.925 113.622C123.925 108.758 122.413 105.256 119.39 103.116C116.367 100.976 111.686 99.9056 105.348 99.9056H83.2604V126.318ZM83.2604 170.094H110.321C116.66 170.094 121.487 169.122 124.802 167.176C128.215 165.133 129.922 161.339 129.922 155.794C129.922 146.747 122.657 142.223 108.127 142.223H83.2604V170.094Z" fill="white"/>
<path d="M182.616 162.798L172.377 186H153.946L198.999 84H217.429L262.482 186H244.051L233.812 162.798H182.616ZM226.791 146.893L208.214 104.867L189.637 146.893H226.791Z" fill="white"/>
<path d="M358.319 117.124C358.319 133.954 350.957 144.558 336.232 148.936L363 186H341.059L316.631 151.708H293.958V186H276.698V84H314.729C330.332 84 341.498 86.6266 348.226 91.8798C354.955 97.1331 358.319 105.548 358.319 117.124ZM315.461 136.094C325.212 136.094 331.844 134.587 335.354 131.571C338.865 128.555 340.62 123.74 340.62 117.124C340.62 110.412 338.816 105.84 335.208 103.408C331.6 100.878 325.164 99.6137 315.9 99.6137H293.958V136.094H315.461Z" fill="white"/>
<defs>
<linearGradient id="paint0_linear" x1="215" y1="0.602295" x2="215" y2="270" gradientUnits="userSpaceOnUse">
<stop stop-color="#A3A3A3"/>
<stop offset="0.5" stop-color="#636363"/>
<stop offset="0.953125" stop-color="#474747"/>
</linearGradient>
</defs>
</svg>
