<svg width="1024" height="720" viewBox="0 0 1024 720" fill="none" xmlns="http://www.w3.org/2000/svg">
<path d="M809.034 718.692C803.944 718.689 798.878 717.989 793.978 716.612L590.525 662.155L591.122 660.014L794.577 714.471C799.282 715.794 804.147 716.466 809.034 716.469C832.978 716.469 854.213 702.595 860.676 679.548L1005.5 163.07H1005.5L1005.82 161.946C1009.62 148.261 1007.85 133.626 1000.88 121.247C993.917 108.868 982.329 99.7545 968.658 95.9023L641.629 4.19897C627.938 0.378348 613.291 2.1434 600.9 9.10701C588.509 16.0706 579.386 27.6643 575.531 41.3453L564.169 81.8748L562.028 81.2745L573.39 40.745C577.404 26.4963 586.906 14.4214 599.811 7.16893C612.716 -0.0835596 627.971 -1.92149 642.229 2.05829L969.258 93.7617C983.322 97.7235 995.275 107.034 1002.56 119.699C1009.84 132.365 1011.88 147.379 1008.23 161.527L1008.24 161.53L1007.94 162.6L862.816 680.148C856.086 704.151 833.97 718.692 809.034 718.692Z" fill="white"/>
<path d="M576.884 93.4156L580.608 94.4605L592.069 97.6731L593.269 93.3822L588.978 92.1817L592.747 78.7423L601.806 70.872L604.219 96.4614L597.549 94.5828L596.348 98.8736L613.467 103.676L614.668 99.3849L611.033 98.3734L607.542 65.892L625.328 50.4294L630.319 51.83L631.52 47.5392L614.39 42.737L613.189 47.0279L618.836 48.6064L596.215 66.3811L602.484 44.0265L606.775 45.227L607.976 40.9362L590.846 36.134L589.645 40.4249L596.07 42.2257L582.564 90.3809L576.139 88.5801L575.972 89.1581L575.283 91.6481L576.884 93.4156Z" fill="#FDD852"/>
<path d="M604.441 133.99C600.163 135.842 595.989 137.924 591.935 140.226C591.19 140.648 590.446 141.082 589.712 141.515V127.765C589.718 122.818 589.018 117.896 587.633 113.147C588.278 112.747 588.934 112.313 589.579 111.88C590.168 111.491 590.768 111.09 591.357 110.69C595.016 118.831 599.394 126.629 604.441 133.99V133.99Z" fill="#FDD852"/>
<path d="M808.174 680.099L803.189 678.701L801.988 682.982L819.114 687.784L820.314 683.503L814.674 681.921L837.289 664.14L831.017 686.505L826.736 685.304L825.536 689.585L842.661 694.387L843.862 690.106L837.439 688.305L850.945 640.14L857.368 641.941L858.568 637.66L841.443 632.858L840.242 637.139L844.523 638.339L840.754 651.783L831.698 659.653L829.292 634.069L835.96 635.938L837.161 631.657L820.036 626.855L818.836 631.136L822.474 632.157L825.967 664.635L808.174 680.099Z" fill="#FDD852"/>
<path d="M829.06 596.538C837.075 593.1 844.699 588.815 851.803 583.756C855.609 591.823 859.985 599.609 864.897 607.054C856.934 610.596 849.32 614.876 842.153 619.836C838.489 611.696 834.108 603.899 829.06 596.538V596.538Z" fill="#FDD852"/>
<path d="M679.082 365.09C679.082 365.09 673.459 401.611 671.788 403.452C670.118 405.292 683.46 448.287 683.46 448.287L726.245 423.34C726.245 423.34 734.569 377.186 737.31 375.645C740.051 374.105 679.082 365.09 679.082 365.09Z" fill="#FFB8B8"/>
<path opacity="0.1" d="M679.082 365.09C679.082 365.09 673.459 401.611 671.788 403.452C670.118 405.292 683.46 448.287 683.46 448.287L726.245 423.34C726.245 423.34 734.569 377.186 737.31 375.645C740.051 374.105 679.082 365.09 679.082 365.09Z" fill="black"/>
<path d="M712.184 400.451C735.513 400.451 754.425 381.538 754.425 358.209C754.425 334.88 735.513 315.968 712.184 315.968C688.854 315.968 669.942 334.88 669.942 358.209C669.942 381.538 688.854 400.451 712.184 400.451Z" fill="#FFB8B8"/>
<path d="M693.875 423.499L690.194 420.158L673.648 396.609C673.648 396.609 671.749 395.359 669.948 401.781L668.147 408.203L652.602 414.235L618.206 561.601L710.254 587.412L748.162 439.877L730.357 421.03L728.385 411.937L700.897 423.159L693.875 423.499Z" fill="white"/>
<path d="M589.712 576.701L591.935 577.324L735.289 617.52L783.222 458.948C783.222 458.948 771.883 449.988 763.013 448.654C763.013 448.654 748.117 431.78 741.703 429.979C735.278 428.178 728.175 412.338 728.175 412.338C728.175 412.338 720.671 439.095 707.777 456.258C694.882 473.421 672.427 532.937 672.427 532.937L666.091 423.788L673.205 396.342C669.069 398.792 665.303 401.82 662.022 405.335C657.009 410.848 644.214 415.339 644.214 415.339C644.214 415.339 610.51 424.366 604.552 425.01C598.605 425.644 595.859 427.189 595.859 427.189L591.935 454.19L589.712 469.486V576.701Z" fill="#2F2E41"/>
<path d="M609.276 515.229C607.942 524.089 594.225 560.65 594.225 560.65L591.935 562.951L589.712 565.185V429.779C590.331 429.108 591.09 428.58 591.935 428.234C593.191 427.712 594.51 427.361 595.859 427.189L600.15 428.39C600.15 428.39 610.61 506.358 609.276 515.229Z" fill="#2F2E41"/>
<path d="M706.924 562.234C706.924 562.234 727.962 524.263 743.887 533.346C759.811 542.43 734.282 567.597 734.282 567.597L706.924 562.234Z" fill="#FFB8B8"/>
<path d="M641.803 547.437C641.803 547.437 601.431 534.961 600.53 538.172C599.63 541.383 588.576 560.219 591.787 561.119C594.998 562.02 619.916 567.853 619.615 568.923C619.315 569.993 631.559 575.735 631.559 575.735L641.803 547.437Z" fill="#FFB8B8"/>
<path d="M720.51 427.37L694.815 428.381L689.463 426.88L668.039 412.657L660.944 433.891L687.963 432.231L693.314 433.732L715.531 449.198L720.51 427.37Z" fill="#FDD852"/>
<path d="M651.462 587.095L647.516 595.499L590.824 579.936L589.712 576.702V558.882L591.935 559.749L594.225 560.65L651.462 587.095Z" fill="#2F2E41"/>
<path d="M653.578 550.738C653.578 550.738 640.264 544.696 639.963 545.766C639.663 546.837 621.796 577.616 626.078 578.816C630.359 580.017 645.514 587.73 645.514 587.73L653.578 550.738Z" fill="white"/>
<path d="M775.73 456.843L783.222 458.944C783.222 458.944 787.503 460.144 787.843 467.167C788.183 474.189 793.994 506.99 791.253 508.53C788.512 510.07 787.742 508.7 789.282 511.441C790.822 514.182 792.193 513.412 790.522 515.252C788.852 517.093 785.018 576.051 772.594 595.657C760.169 615.263 756.397 624.596 752.116 623.395L641.143 592.277C641.143 592.277 646.085 548.637 650.666 548.768C655.248 548.898 730.301 565.326 730.301 565.326C730.301 565.326 759.375 453.411 775.73 456.843Z" fill="#2F2E41"/>
<path d="M687.295 311.911L680.365 306.941C680.365 306.941 701.025 295.329 723.082 303.028L718.539 294.943C718.539 294.943 735.547 293.659 745.447 312.326C750.651 322.139 756.633 333.636 759.077 345.383L767.342 347.7L761.958 353.632L772.096 363.916L760.052 359.202C759.556 365.487 757.425 371.533 753.87 376.74L748.9 383.671C748.9 383.671 743.97 358.073 744.757 355.266L742.79 362.282C742.79 362.282 736.843 353.804 738.023 349.595L732.437 353.325L732.496 345.018L704.374 345.456L710.354 340.322L693.628 337.902L702.106 331.956C702.106 331.956 681.308 335.961 678.442 343.481C675.577 351.002 663.702 358.266 663.702 358.266L661.46 350.07C661.46 350.07 663.999 316.729 687.295 311.911Z" fill="#2F2E41"/>
<path d="M672.773 327.108L673.103 325.668C676.315 311.684 651.606 285.677 651.357 285.416L650.918 284.958L651.089 284.347C651.578 282.604 653.539 281.055 670.72 284.779C677.409 286.23 684.08 287.997 686.873 288.755C686.561 280.77 676.663 270.191 676.557 270.079L675.312 268.76L677.053 268.249C688.464 264.904 701.82 275.998 706.088 279.926L713.223 254.482L727.342 275.336C736.01 262.361 748.547 262.887 749.095 262.917L750.855 263.013L750.01 264.56C744.07 275.427 743 282.564 742.938 286.083C758.741 267.309 772.982 268.944 773.601 269.026L775.76 269.311L774.263 270.892C753.575 292.752 751.139 321.588 751.117 321.877L751.042 322.849L672.773 327.108ZM653.819 284.793C658.187 289.528 677.078 310.895 675.513 324.732L749.002 320.734C749.608 315.59 753.335 291.111 770.907 271.267C766.118 271.694 754.822 274.424 742.922 289.632L741.557 291.375L740.974 289.24C740.882 288.904 738.893 281.086 747.146 265.204C743.363 265.562 734.553 267.543 728.327 277.937L727.431 279.433L714.07 259.698L707.212 284.154L705.867 282.791C705.717 282.639 691.381 268.285 679.462 269.997C682.522 273.559 689.842 282.943 689.04 290.319L688.899 291.624L687.635 291.27C673.598 287.334 657.564 283.975 653.819 284.793Z" fill="#FDD852"/>
<path d="M779.141 263.17C778.381 262.957 777.702 262.524 777.189 261.925C776.676 261.326 776.352 260.588 776.258 259.805C776.164 259.022 776.305 258.229 776.662 257.526C777.019 256.823 777.576 256.241 778.264 255.855C778.951 255.468 779.738 255.295 780.524 255.355C781.31 255.416 782.061 255.709 782.681 256.196C783.301 256.683 783.763 257.343 784.007 258.093C784.252 258.843 784.269 259.648 784.056 260.407C783.77 261.425 783.091 262.287 782.17 262.805C781.248 263.323 780.159 263.454 779.141 263.17V263.17ZM780.694 257.632C780.358 257.538 780.001 257.546 779.67 257.654C779.338 257.762 779.046 257.966 778.83 258.241C778.615 258.515 778.485 258.847 778.458 259.195C778.432 259.543 778.508 259.891 778.679 260.195C778.85 260.499 779.108 260.746 779.419 260.904C779.73 261.062 780.081 261.124 780.427 261.082C780.774 261.041 781.1 260.897 781.365 260.67C781.63 260.443 781.822 260.143 781.916 259.807C782.041 259.357 781.983 258.875 781.754 258.467C781.525 258.059 781.144 257.759 780.694 257.632V257.632Z" fill="#FDD852"/>
<path d="M751.452 255.405C750.692 255.192 750.013 254.759 749.5 254.16C748.987 253.561 748.663 252.824 748.569 252.041C748.476 251.258 748.616 250.464 748.973 249.761C749.33 249.058 749.887 248.477 750.575 248.09C751.262 247.704 752.049 247.53 752.835 247.591C753.621 247.651 754.372 247.944 754.992 248.431C755.612 248.918 756.074 249.579 756.319 250.328C756.563 251.078 756.58 251.883 756.368 252.643C756.081 253.66 755.403 254.523 754.481 255.041C753.559 255.558 752.47 255.69 751.452 255.405V255.405ZM753.005 249.868C752.669 249.773 752.312 249.781 751.981 249.889C751.649 249.998 751.357 250.202 751.141 250.476C750.926 250.75 750.796 251.082 750.769 251.43C750.743 251.778 750.82 252.126 750.99 252.43C751.161 252.735 751.419 252.981 751.73 253.139C752.041 253.297 752.392 253.359 752.738 253.318C753.085 253.276 753.411 253.133 753.676 252.906C753.941 252.679 754.133 252.378 754.227 252.042C754.353 251.592 754.294 251.11 754.065 250.702C753.836 250.295 753.455 249.994 753.005 249.868V249.868Z" fill="#FDD852"/>
<path d="M709.361 251.07C708.602 250.857 707.923 250.423 707.41 249.825C706.897 249.226 706.573 248.488 706.479 247.705C706.385 246.922 706.526 246.129 706.883 245.426C707.24 244.722 707.797 244.141 708.484 243.754C709.172 243.368 709.959 243.194 710.745 243.255C711.531 243.316 712.282 243.608 712.902 244.095C713.522 244.583 713.983 245.243 714.228 245.993C714.473 246.742 714.49 247.548 714.277 248.307C713.991 249.325 713.312 250.187 712.391 250.705C711.469 251.223 710.38 251.354 709.361 251.07ZM710.914 245.532C710.578 245.438 710.222 245.445 709.89 245.554C709.559 245.662 709.267 245.866 709.051 246.14C708.835 246.415 708.706 246.747 708.679 247.095C708.652 247.443 708.729 247.791 708.9 248.095C709.071 248.399 709.328 248.645 709.639 248.803C709.951 248.961 710.302 249.023 710.648 248.982C710.994 248.94 711.321 248.797 711.586 248.57C711.851 248.343 712.042 248.043 712.136 247.707C712.262 247.256 712.204 246.774 711.975 246.367C711.746 245.959 711.364 245.659 710.914 245.532V245.532Z" fill="#FDD852"/>
<path d="M642.169 283C641.409 282.787 640.73 282.354 640.217 281.755C639.704 281.156 639.38 280.419 639.286 279.636C639.192 278.853 639.333 278.059 639.69 277.356C640.047 276.653 640.604 276.072 641.292 275.685C641.979 275.299 642.766 275.125 643.552 275.186C644.338 275.246 645.089 275.539 645.709 276.026C646.329 276.513 646.791 277.174 647.035 277.923C647.28 278.673 647.297 279.478 647.084 280.238C646.798 281.255 646.119 282.118 645.198 282.636C644.276 283.153 643.187 283.285 642.169 283V283ZM643.721 277.463C643.385 277.368 643.029 277.376 642.697 277.484C642.366 277.593 642.074 277.797 641.858 278.071C641.643 278.345 641.513 278.677 641.486 279.025C641.459 279.373 641.536 279.721 641.707 280.025C641.878 280.33 642.135 280.576 642.447 280.734C642.758 280.892 643.109 280.954 643.455 280.913C643.801 280.871 644.128 280.728 644.393 280.501C644.658 280.274 644.849 279.973 644.944 279.637C645.069 279.187 645.011 278.705 644.782 278.297C644.553 277.89 644.172 277.589 643.721 277.463V277.463Z" fill="#FDD852"/>
<path d="M668.151 264.899C667.392 264.687 666.713 264.253 666.199 263.654C665.686 263.055 665.362 262.318 665.269 261.535C665.175 260.752 665.315 259.959 665.672 259.255C666.029 258.552 666.587 257.971 667.274 257.584C667.962 257.198 668.748 257.024 669.534 257.085C670.321 257.146 671.071 257.438 671.691 257.925C672.311 258.413 672.773 259.073 673.018 259.822C673.263 260.572 673.28 261.378 673.067 262.137C672.78 263.154 672.102 264.017 671.18 264.535C670.259 265.052 669.169 265.184 668.151 264.899V264.899ZM669.704 259.362C669.368 259.268 669.012 259.275 668.68 259.383C668.348 259.492 668.056 259.696 667.841 259.97C667.625 260.245 667.496 260.577 667.469 260.924C667.442 261.272 667.519 261.62 667.69 261.925C667.861 262.229 668.118 262.475 668.429 262.633C668.74 262.791 669.091 262.853 669.437 262.812C669.784 262.77 670.11 262.627 670.375 262.4C670.64 262.173 670.832 261.872 670.926 261.537C671.052 261.086 670.994 260.604 670.765 260.196C670.535 259.789 670.154 259.489 669.704 259.362Z" fill="#FDD852"/>
<path d="M800.666 639.318L799.596 639.018L590.056 580.26L590.655 578.119L799.126 636.578L930.887 166.702L637.08 84.3161L592.268 244.127L590.127 243.527L635.542 81.5748L636.61 81.875L933.627 165.163L933.327 166.232L800.666 639.318Z" fill="white"/>
<path d="M46.2814 682.334C60.097 707.956 89.4187 718.955 89.4187 718.955C89.4187 718.955 96.3409 688.413 82.5253 662.791C68.7097 637.17 39.3879 626.171 39.3879 626.171C39.3879 626.171 32.4658 656.713 46.2814 682.334Z" fill="#2F2E41"/>
<path d="M55.777 673.905C80.7199 688.912 90.3262 718.719 90.3262 718.719C90.3262 718.719 59.4921 724.196 34.5492 709.189C9.6063 694.183 0 664.376 0 664.376C0 664.376 30.8341 658.899 55.777 673.905Z" fill="#FDD852"/>
<path d="M589.578 111.88C587.665 105.579 584.626 99.6772 580.608 94.4608C579.177 92.5967 577.628 90.8256 575.972 89.1584C570.895 84.0465 564.855 79.9904 558.202 77.224C551.55 74.4576 544.415 73.0356 537.21 73.0399H197.567C183.058 73.0546 169.147 78.825 158.887 89.0847C148.627 99.3444 142.857 113.255 142.842 127.765V665.275C142.857 679.785 148.627 693.696 158.887 703.955C169.147 714.215 183.058 719.985 197.567 720H537.21C551.719 719.985 565.63 714.215 575.89 703.955C586.15 693.696 591.92 679.785 591.935 665.275V127.765C591.941 122.382 591.146 117.029 589.578 111.88V111.88ZM589.712 665.275C589.695 679.194 584.158 692.539 574.316 702.381C564.473 712.223 551.129 717.76 537.21 717.777H197.567C183.648 717.76 170.304 712.223 160.461 702.381C150.619 692.539 145.082 679.194 145.066 665.275V127.765C145.082 113.846 150.619 100.501 160.461 90.659C170.304 80.8167 183.648 75.2799 197.567 75.2632H537.21C544.337 75.26 551.39 76.7115 557.936 79.5289C564.483 82.3463 570.386 86.4703 575.283 91.6484C575.828 92.2264 576.361 92.8156 576.884 93.4158C585.158 102.946 589.714 115.144 589.712 127.765V665.275Z" fill="white"/>
<path d="M197.024 159.423C196.963 159.278 196.886 159.146 196.819 159.007C199.326 154.101 200.591 148.655 200.503 143.146C200.503 125.915 189.735 113.88 174.317 113.88C158.899 113.88 148.131 125.915 148.131 143.146C148.131 160.378 158.899 172.413 174.317 172.413C177.956 172.487 181.567 171.755 184.89 170.271C188.214 168.787 191.169 166.587 193.543 163.828C198.48 171.816 208.023 172.87 208.463 172.914L208.983 167.806C208.624 167.767 200.152 166.776 197.024 159.423ZM174.317 167.279C161.922 167.279 153.265 157.355 153.265 143.146C153.265 128.938 161.922 119.014 174.317 119.014C186.712 119.014 195.369 128.938 195.369 143.146C195.419 147.197 194.62 151.214 193.023 154.937C185.359 150.281 171.101 153.063 169.167 153.471L170.223 158.495C175.461 157.399 185.88 156.519 190.415 159.365C188.553 161.867 186.122 163.891 183.322 165.267C180.523 166.643 177.436 167.333 174.317 167.279V167.279Z" fill="#FDD852"/>
<path d="M176.191 184.626C174.52 182.957 172.255 182.02 169.894 182.021C167.532 182.022 165.267 182.961 163.597 184.63C161.928 186.3 160.989 188.565 160.988 190.926C160.987 193.288 161.924 195.553 163.593 197.224L176.191 209.823L188.79 197.224C190.455 195.553 191.389 193.288 191.386 190.929C191.384 188.569 190.445 186.307 188.777 184.639C187.109 182.97 184.846 182.032 182.487 182.029C180.127 182.027 177.863 182.961 176.191 184.626V184.626Z" fill="#FDD852"/>
<path d="M537.753 637.06C537.814 637.205 537.891 637.337 537.959 637.476C535.451 642.382 534.186 647.828 534.274 653.337C534.274 670.568 545.042 682.603 560.46 682.603C575.878 682.603 586.646 670.568 586.646 653.337C586.646 636.105 575.878 624.07 560.46 624.07C556.821 623.996 553.21 624.728 549.887 626.212C546.563 627.696 543.608 629.896 541.234 632.655C536.297 624.667 526.754 623.613 526.314 623.569L525.794 628.677C526.153 628.716 534.625 629.707 537.753 637.06ZM560.46 629.204C572.855 629.204 581.512 639.128 581.512 653.337C581.512 667.545 572.855 677.469 560.46 677.469C548.065 677.469 539.409 667.545 539.409 653.337C539.358 649.286 540.157 645.269 541.754 641.546C549.418 646.202 563.676 643.42 565.61 643.012L564.554 637.988C559.316 639.084 548.897 639.964 544.362 637.118C546.224 634.616 548.655 632.592 551.455 631.216C554.254 629.84 557.341 629.15 560.46 629.204V629.204Z" fill="#FDD852"/>
<path d="M558.586 611.857C560.258 613.523 562.522 614.458 564.883 614.456C567.243 614.454 569.506 613.516 571.175 611.847C572.844 610.178 573.782 607.915 573.784 605.555C573.786 603.195 572.851 600.93 571.185 599.259L558.586 586.66L545.988 599.259C544.322 600.93 543.387 603.195 543.389 605.555C543.391 607.915 544.329 610.178 545.998 611.847C547.667 613.516 549.93 614.454 552.29 614.456C554.65 614.458 556.915 613.523 558.586 611.857V611.857Z" fill="#FDD852"/>
<path d="M394.786 378.413C379.652 352.842 349.711 351.65 349.711 351.65C349.711 351.65 320.536 347.919 301.82 386.864C284.375 423.165 260.299 458.213 297.944 466.711L304.744 445.547L308.955 468.286C314.314 468.672 319.691 468.764 325.061 468.562C365.376 467.26 403.769 468.942 402.533 454.476C400.89 435.245 409.347 403.018 394.786 378.413Z" fill="#2F2E41"/>
<path d="M338.955 465.537C339.029 468.415 339.007 471.451 337.577 473.95C334.741 478.903 327.819 479.645 323.656 483.549C319.277 487.655 318.782 494.319 318.573 500.317C318.355 506.589 318.17 513.067 320.459 518.91C321.861 522.129 323.633 525.173 325.739 527.982C328.281 531.646 330.847 535.294 333.436 538.925C334.818 540.97 336.359 542.904 338.044 544.708C342.681 549.431 349.041 552.046 355.391 553.911C359.494 555.116 363.924 556.055 367.995 554.746C370.688 553.695 373.171 552.168 375.324 550.239C378.352 547.834 381.426 545.381 383.62 542.198C387.039 537.239 387.985 531.032 388.693 525.051C390.788 507.365 391.603 489.551 391.132 471.747C391.218 469.807 390.871 467.872 390.115 466.084C388.007 461.967 382.36 461.088 379.385 457.547C376.841 454.519 376.737 450.199 376.759 446.244L376.814 436.178C376.903 435.329 376.732 434.474 376.325 433.725C375.956 433.322 375.511 432.995 375.015 432.764C374.52 432.532 373.983 432.401 373.437 432.378C367.18 431.339 360.837 430.915 354.498 431.111C349.359 431.268 339.497 430.838 335.053 433.7C331.02 436.298 336.07 443.475 337.005 447.506C338.261 453.435 338.914 459.476 338.955 465.537Z" fill="#A0616A"/>
<path d="M350.753 448.25C373.224 448.25 391.442 430.033 391.442 407.561C391.442 385.089 373.224 366.872 350.753 366.872C328.281 366.872 310.063 385.089 310.063 407.561C310.063 430.033 328.281 448.25 350.753 448.25Z" fill="#A0616A"/>
<path d="M333.998 508.345C331.41 504.498 329.28 500.362 327.652 496.02C326.197 491.623 325.815 486.708 327.541 482.41C323.145 479.859 317.175 481.925 313.973 485.873C310.771 489.821 309.791 495.114 309.509 500.189C309.226 505.265 309.526 510.415 308.421 515.377C305.977 526.355 296.909 535.38 296.235 546.607C295.571 557.651 303.145 567.273 306.871 577.691C309.129 584.185 310.073 591.062 309.648 597.924C309.527 600.139 309.388 602.664 310.951 604.238C311.764 604.949 312.727 605.467 313.767 605.755C331.746 612.081 351.166 612.628 370.219 613.111L401.689 613.908C403.592 614.135 405.52 613.812 407.246 612.977C410.069 611.246 410.447 607.366 410.495 604.054C410.908 575.534 409.695 547.019 408.482 518.521C408.043 508.192 407.596 497.803 405.405 487.7C404.848 485.127 403.933 482.266 401.558 481.13C399.548 480.169 397.162 480.792 395.072 481.564C385.318 485.191 376.888 491.681 370.886 500.182C364.429 509.372 361.252 520.396 354.933 529.656C350.347 536.376 347.695 530.519 344.639 525.571C341.093 519.828 337.546 514.086 333.998 508.345Z" fill="white"/>
<path d="M329.127 483.113C328.327 483.68 327.538 484.28 326.782 484.914C323.95 487.252 321.411 489.924 319.223 492.873C315.6 497.813 312.717 503.254 310.663 509.025C306.973 519.141 305.372 529.879 303.838 540.528C303.169 544.451 302.808 548.421 302.76 552.4C302.993 567.029 311.642 580.58 311.653 595.22C311.653 595.775 311.642 596.32 311.608 596.876C311.505 599.272 311.223 601.658 310.764 604.012C310.13 607.447 309.218 610.838 308.318 614.217C306.05 622.688 303.605 631.469 299.181 638.906C298.736 639.662 298.258 640.407 297.769 641.129H266.644C266.888 640.384 267.144 639.651 267.388 638.906C272.691 623.199 277.989 607.495 283.285 591.796C284.907 586.994 286.53 582.169 287.675 577.234C288.985 571.139 289.88 564.963 290.354 558.747C291.577 545.864 292.381 532.954 292.767 520.019C292.911 515.372 293.011 510.626 294.512 506.224C295.919 502.637 297.779 499.244 300.048 496.13C303.26 491.295 306.473 486.459 309.685 481.624C311.475 478.933 313.354 476.166 316.111 474.487C318.412 473.075 321.146 472.564 323.57 471.374C325.094 470.509 326.558 469.54 327.949 468.473C331.573 465.905 335.831 463.204 338.954 465.827C339.461 466.248 339.896 466.747 340.244 467.306C340.422 467.58 340.581 467.866 340.722 468.162C343.723 474.654 333.163 480.256 329.127 483.113Z" fill="#2F2E41"/>
<path d="M431.663 641.129H287.508C288.286 640.418 289.053 639.673 289.798 638.906C289.909 638.795 290.009 638.684 290.121 638.573C295.634 632.848 296.89 625.811 299.658 618.364C301.737 612.75 303.816 607.14 305.894 601.534C306.223 600.442 306.763 599.426 307.484 598.543C308.086 597.922 308.841 597.469 309.674 597.232C310.303 597.039 310.952 596.919 311.608 596.876C312.545 596.815 313.484 596.815 314.42 596.876C340.288 598.21 366.137 599.837 391.967 601.756C395.302 602.012 398.636 602.267 401.971 602.523C404.695 604.546 407.385 606.692 409.953 608.959C418.301 616.296 425.538 624.933 429.684 635.138C430.184 636.372 430.64 637.628 431.018 638.906C431.262 639.64 431.474 640.385 431.663 641.129Z" fill="#2F2E41"/>
<path d="M388.095 375.948L358.515 360.453L317.666 366.792L309.214 404.12L330.253 403.311L336.13 389.597V403.084L345.838 402.71L351.471 380.878L354.993 404.12L389.503 403.415L388.095 375.948Z" fill="#2F2E41"/>
<path d="M431.663 641.129H399.114C398.881 640.396 398.659 639.651 398.447 638.906C396.149 630.637 394.462 622.211 393.401 613.695C393.056 611.26 392.756 608.815 392.478 606.38C392.3 604.835 392.133 603.301 391.967 601.756C390.099 584.592 388.665 567.262 383.418 550.833C382.785 548.843 382.096 546.864 381.429 544.886C380.197 541.479 379.23 537.981 378.538 534.425C377.116 526.288 378.183 517.862 376.715 509.736C375.893 505.201 374.259 501.21 373.269 497.053C372.639 494.544 372.392 491.954 372.536 489.371C374.931 487.111 377.946 485.617 381.195 485.081C382.318 484.892 383.585 484.747 384.263 483.847C384.663 483.162 384.842 482.37 384.775 481.579C384.853 476.336 384.552 471.094 383.874 465.894C383.652 464.071 383.374 462.248 383.04 460.436C383.029 460.347 383.007 460.269 382.996 460.18C385.708 459.002 388.765 458.991 391.711 459.002C394.924 459.013 398.125 459.013 401.327 459.024C407.251 459.047 413.176 459.065 419.101 459.08C424.615 459.091 430.317 459.147 435.331 461.425C440.511 463.793 444.446 468.362 447.047 473.431C449.648 478.5 451.06 484.08 452.339 489.627C452.693 491.162 452.88 492.732 452.894 494.307C453.139 506.824 443.801 519.43 442.868 532.224C442.567 536.371 442.912 540.55 442.534 544.697C442.156 548.854 441.045 552.923 440.844 557.08C440.833 557.291 440.822 557.513 440.822 557.725C440.7 563.138 442.278 568.441 444.102 573.543C446.925 581.469 450.36 589.15 453.906 596.787C457.33 604.179 460.842 611.538 463.999 619.03C465.641 622.508 466.747 626.215 467.279 630.024C467.629 633.086 467.044 636.183 465.6 638.906C465.23 639.579 464.786 640.209 464.277 640.785L464.255 640.807C464.155 640.918 464.055 641.029 463.955 641.129H431.663V641.129Z" fill="#2F2E41"/>
<path d="M462.665 629.724C462.529 631.203 462.126 632.646 461.476 633.981C461.42 634.115 461.365 634.237 461.309 634.371C460.665 635.893 460.009 637.394 459.331 638.906C458.997 639.64 458.664 640.384 458.319 641.129H439.911C440.577 640.432 441.194 639.689 441.756 638.906C444.579 634.982 446.214 630.213 449.093 625.978C449.484 625.399 449.934 624.862 450.438 624.377C455.051 619.908 462.954 620.82 462.665 629.724Z" fill="#FFB8B8"/>
<path d="M474.649 641.129C474.884 640.399 475.081 639.657 475.238 638.906C475.371 638.317 475.483 637.739 475.572 637.15C476.161 633.27 476.15 629.302 477.072 625.489C478.373 620.031 482.275 613.572 479.062 608.981C481.561 608.468 483.918 607.414 485.965 605.891C487.877 604.224 488.989 601.333 487.833 599.066C486.688 596.831 483.586 595.353 484.009 592.874C484.219 592.088 484.59 591.354 485.098 590.717C486.784 588.058 487.656 584.964 487.606 581.816C487.557 578.668 486.588 575.603 484.82 572.998C483.809 571.553 482.564 570.286 481.641 568.774C480.632 566.925 479.859 564.957 479.34 562.916C476.13 552.572 471.398 542.764 465.3 533.814C463.949 532.091 462.9 530.152 462.199 528.078C461.789 525.83 461.707 523.535 461.954 521.264C462.177 512.282 458.819 503.511 453.984 495.952C453.628 495.396 453.261 494.852 452.895 494.307C448.226 487.426 442.434 481.39 436.665 475.398C434.286 476.51 432.185 477.233 430.951 479.545C430.346 480.848 429.974 482.248 429.851 483.68C428.272 494.685 426.905 505.757 425.838 516.817C425.304 522.409 424.76 528.045 425.393 533.625C426.027 539.205 427.928 544.797 431.707 548.943C434.075 551.544 437.076 553.478 439.644 555.879C440.055 556.268 440.456 556.669 440.845 557.08C442.695 559.051 444.338 561.208 445.747 563.516C451.907 573.468 454.763 585.114 453.906 596.787C453.751 598.891 453.472 600.985 453.072 603.056C452.584 606.023 451.583 608.881 450.115 611.505C448.948 613.428 447.414 615.106 446.358 617.096C445.302 619.086 444.802 621.565 445.847 623.555C447.414 623.553 448.969 623.832 450.438 624.377C453.899 625.712 456.907 628.006 459.108 630.991C459.92 632.065 460.656 633.194 461.309 634.371C462.134 635.837 462.869 637.351 463.51 638.906C463.777 639.517 464.033 640.151 464.277 640.785C464.333 640.895 464.378 641.01 464.411 641.129H474.649Z" fill="#2F2E41"/>
<path d="M383.764 447.731L360.194 458.011L354.662 458.558L329.534 453.095L330.642 475.456L355.209 464.089L360.741 463.542L387.059 469.874L383.764 447.731Z" fill="#FDD852"/>
<path d="M431.018 638.906C431.262 639.64 431.474 640.384 431.663 641.129H439.911C440.577 640.432 441.194 639.689 441.756 638.906H431.018ZM213.152 150.907V641.129H520.514V150.907H213.152ZM518.291 638.906H215.376V153.13H518.291V638.906ZM431.018 638.906C431.262 639.64 431.474 640.384 431.663 641.129H439.911C440.577 640.432 441.194 639.689 441.756 638.906H431.018Z" fill="white"/>
<path d="M314.144 365.374L314.335 364.418C314.391 364.134 319.831 335.711 305.814 309.077L304.8 307.151L306.955 307.459C307.574 307.548 321.727 309.818 331.874 332.162C332.765 328.757 333.662 321.596 330.877 309.529L330.48 307.811L332.201 308.194C332.737 308.313 344.95 311.192 349.793 326.025L369.018 309.758V336.183C374.188 333.554 390.044 326.478 400.128 332.78L401.666 333.741L400.111 334.676C399.979 334.755 387.592 342.269 385.136 349.872C388.03 349.897 394.93 349.996 401.763 350.406C419.311 351.459 420.781 353.479 420.781 355.29V355.924L420.235 356.247C419.924 356.431 389.11 374.8 388.428 389.132L388.357 390.608L314.144 365.374ZM383.723 352.088H382.41L382.626 350.793C383.846 343.474 393.428 336.416 397.336 333.811C386.322 328.945 368.643 338.895 368.458 339.001L366.795 339.95V314.551L348.601 329.946L348.142 328.263C344.954 316.574 337.006 312.289 333.46 310.922C337.119 328.443 333.092 335.433 332.913 335.732L331.775 337.63L330.932 335.584C323.58 317.727 313.44 312.049 308.945 310.344C320.506 334.196 317.485 358.772 316.68 363.889L386.36 387.58C388.589 373.834 412.547 358.361 418.032 354.982C414.647 353.183 398.302 352.088 383.723 352.088V352.088Z" fill="#FDD852"/>
<path d="M299.215 296.338C299.215 295.549 299.449 294.779 299.887 294.123C300.325 293.467 300.948 292.956 301.676 292.654C302.405 292.353 303.207 292.274 303.98 292.427C304.753 292.581 305.464 292.961 306.022 293.519C306.579 294.076 306.959 294.787 307.113 295.56C307.267 296.334 307.188 297.135 306.886 297.864C306.584 298.593 306.073 299.215 305.417 299.653C304.762 300.092 303.991 300.325 303.202 300.325C302.145 300.324 301.131 299.904 300.384 299.156C299.636 298.409 299.216 297.395 299.215 296.338V296.338ZM301.438 296.338C301.438 296.687 301.542 297.028 301.735 297.318C301.929 297.608 302.205 297.834 302.527 297.968C302.849 298.101 303.204 298.136 303.546 298.068C303.888 298 304.203 297.832 304.449 297.585C304.696 297.339 304.864 297.024 304.932 296.682C305 296.34 304.965 295.985 304.832 295.663C304.698 295.341 304.472 295.065 304.182 294.871C303.892 294.678 303.551 294.574 303.202 294.574C302.734 294.575 302.286 294.761 301.955 295.091C301.625 295.422 301.439 295.87 301.438 296.338V296.338Z" fill="#FDD852"/>
<path d="M327.972 296.338C327.972 295.549 328.206 294.779 328.644 294.123C329.082 293.467 329.705 292.956 330.433 292.654C331.162 292.353 331.963 292.274 332.737 292.427C333.51 292.581 334.221 292.961 334.778 293.519C335.336 294.076 335.716 294.787 335.87 295.56C336.023 296.334 335.944 297.135 335.643 297.864C335.341 298.593 334.83 299.215 334.174 299.653C333.518 300.092 332.748 300.325 331.959 300.325C330.902 300.324 329.888 299.904 329.141 299.156C328.393 298.409 327.973 297.395 327.972 296.338V296.338ZM330.195 296.338C330.195 296.687 330.298 297.028 330.492 297.318C330.686 297.608 330.962 297.834 331.284 297.968C331.606 298.101 331.961 298.136 332.303 298.068C332.645 298 332.96 297.832 333.206 297.585C333.453 297.339 333.621 297.024 333.689 296.682C333.757 296.34 333.722 295.985 333.589 295.663C333.455 295.341 333.229 295.065 332.939 294.871C332.649 294.678 332.308 294.574 331.959 294.574C331.491 294.575 331.043 294.761 330.712 295.091C330.382 295.422 330.195 295.87 330.195 296.338V296.338Z" fill="#FDD852"/>
<path d="M369.67 303.528C369.67 302.739 369.904 301.968 370.342 301.313C370.78 300.657 371.403 300.146 372.131 299.844C372.86 299.542 373.662 299.463 374.435 299.617C375.209 299.771 375.919 300.151 376.477 300.708C377.034 301.266 377.414 301.976 377.568 302.75C377.722 303.523 377.643 304.325 377.341 305.054C377.039 305.782 376.528 306.405 375.872 306.843C375.217 307.281 374.446 307.515 373.657 307.515C372.6 307.514 371.587 307.094 370.839 306.346C370.091 305.598 369.671 304.585 369.67 303.528V303.528ZM371.893 303.528C371.893 303.877 371.997 304.218 372.19 304.508C372.384 304.798 372.66 305.024 372.982 305.158C373.304 305.291 373.659 305.326 374.001 305.258C374.344 305.19 374.658 305.022 374.905 304.775C375.151 304.528 375.319 304.214 375.387 303.872C375.455 303.53 375.42 303.175 375.287 302.853C375.153 302.53 374.927 302.255 374.637 302.061C374.347 301.867 374.006 301.764 373.657 301.764C373.19 301.764 372.741 301.95 372.41 302.281C372.08 302.612 371.894 303.06 371.893 303.528V303.528Z" fill="#FDD852"/>
<path d="M425.746 352.414C425.746 351.626 425.98 350.855 426.418 350.199C426.856 349.543 427.479 349.032 428.208 348.731C428.936 348.429 429.738 348.35 430.511 348.504C431.285 348.657 431.995 349.037 432.553 349.595C433.11 350.153 433.49 350.863 433.644 351.636C433.798 352.41 433.719 353.212 433.417 353.94C433.115 354.669 432.604 355.291 431.949 355.73C431.293 356.168 430.522 356.402 429.733 356.402C428.676 356.4 427.663 355.98 426.915 355.232C426.168 354.485 425.747 353.471 425.746 352.414V352.414ZM427.969 352.414C427.969 352.763 428.073 353.104 428.267 353.394C428.46 353.684 428.736 353.911 429.058 354.044C429.381 354.178 429.735 354.212 430.077 354.144C430.42 354.076 430.734 353.908 430.981 353.662C431.227 353.415 431.395 353.101 431.464 352.758C431.532 352.416 431.497 352.062 431.363 351.739C431.23 351.417 431.004 351.141 430.713 350.948C430.423 350.754 430.082 350.65 429.733 350.65C429.266 350.651 428.817 350.837 428.487 351.168C428.156 351.498 427.97 351.947 427.969 352.414V352.414Z" fill="#FDD852"/>
<path d="M405.616 327.971C405.616 327.182 405.849 326.411 406.288 325.755C406.726 325.099 407.349 324.588 408.077 324.286C408.806 323.985 409.608 323.906 410.381 324.06C411.155 324.213 411.865 324.593 412.423 325.151C412.981 325.709 413.36 326.419 413.514 327.193C413.668 327.966 413.589 328.768 413.287 329.497C412.985 330.225 412.474 330.848 411.818 331.286C411.163 331.724 410.392 331.958 409.603 331.958C408.546 331.957 407.532 331.536 406.785 330.789C406.037 330.041 405.617 329.028 405.616 327.971V327.971ZM407.839 327.971C407.839 328.32 407.942 328.661 408.136 328.951C408.33 329.241 408.606 329.467 408.928 329.601C409.25 329.735 409.605 329.769 409.947 329.701C410.29 329.633 410.604 329.465 410.851 329.219C411.098 328.972 411.266 328.657 411.334 328.315C411.402 327.973 411.367 327.618 411.233 327.296C411.1 326.973 410.873 326.698 410.583 326.504C410.293 326.31 409.952 326.207 409.603 326.207C409.135 326.207 408.687 326.393 408.356 326.724C408.026 327.055 407.839 327.503 407.839 327.971Z" fill="#FDD852"/>
<path d="M1023.8 717.275H13.3394V719.498H1023.8V717.275Z" fill="white"/>
</svg>
