<svg width="642" height="642" viewBox="0 0 642 642" fill="none" xmlns="http://www.w3.org/2000/svg">
<path d="M572.045 320.114C617.527 409.968 576.685 499.436 496.115 550.159C415.545 600.881 325.756 593.651 280.274 503.797C234.792 413.943 251.483 330.451 373.914 308.74C414.118 216.53 526.563 230.26 572.045 320.114Z" fill="url(#paint0_linear)"/>
<path d="M370.698 309.892L306.227 65.3366L325.553 59.7848L378.216 309.167L370.698 309.892Z" fill="url(#paint1_linear)"/>
<path d="M356.496 443.194C338.296 544.36 254.965 582.342 164.251 562.044C73.5378 541.746 9.79343 470.856 27.9939 369.69C46.1943 268.524 107.74 217.472 213.152 290.233C297.606 249.711 374.697 342.028 356.496 443.194Z" fill="url(#paint2_linear)"/>
<path d="M212.269 290.035L305.337 64.9871L319.562 72.8428L217.036 294.175L212.269 290.035Z" fill="url(#paint3_linear)"/>
<defs>
<linearGradient id="paint0_linear" x1="441.328" y1="254.173" x2="332.904" y2="556.641" gradientUnits="userSpaceOnUse">
<stop stop-color="#FF9292"/>
<stop offset="0.384105" stop-color="#FF6D6D"/>
<stop offset="0.765625" stop-color="#EE5B5B"/>
<stop offset="0.989583" stop-color="#D54E4E"/>
</linearGradient>
<linearGradient id="paint1_linear" x1="306.719" y1="64.9373" x2="402.556" y2="300.513" gradientUnits="userSpaceOnUse">
<stop stop-color="#DC8F9A"/>
<stop offset="0.489583" stop-color="#B46D77"/>
<stop offset="1" stop-color="#77484F"/>
</linearGradient>
<linearGradient id="paint2_linear" x1="216.782" y1="270.055" x2="152.058" y2="559.316" gradientUnits="userSpaceOnUse">
<stop stop-color="#FF9292"/>
<stop offset="0.505208" stop-color="#FF6D6D"/>
<stop offset="1" stop-color="#EE5B5B"/>
</linearGradient>
<linearGradient id="paint3_linear" x1="305.837" y1="64.9919" x2="215.089" y2="294.612" gradientUnits="userSpaceOnUse">
<stop stop-color="#DC8F9A"/>
<stop offset="0.489583" stop-color="#B46D77"/>
<stop offset="1" stop-color="#77484F"/>
</linearGradient>
</defs>
</svg>
