<svg width="663" height="663" viewBox="0 0 663 663" fill="none" xmlns="http://www.w3.org/2000/svg">
<path d="M517.079 295.502C481.663 325.284 448.505 343.508 420.349 306.047C392.194 268.585 386.223 198.3 421.639 168.518C471.598 126.506 576.371 113.708 604.527 151.169C486.959 216.566 552.495 265.72 517.079 295.502Z" fill="url(#paint0_linear)"/>
<path d="M475.617 235.139C477.347 282.961 471.607 322.018 426.395 323.847C381.184 325.676 324.093 289.163 322.364 241.34C319.924 173.88 372.19 76.9818 417.401 75.1524C397.641 214.094 473.888 187.317 475.617 235.139Z" fill="url(#paint1_linear)"/>
<ellipse rx="66.6808" ry="52.3951" transform="matrix(-1 0 0 1 66.681 463.495)" fill="url(#paint2_linear)"/>
<ellipse rx="66.6808" ry="52.3951" transform="matrix(-1 0 0 1 523.921 463.495)" fill="url(#paint3_linear)"/>
<ellipse cx="293.396" cy="463.495" rx="253.387" ry="199.504" fill="url(#paint4_linear)"/>
<defs>
<linearGradient id="paint0_linear" x1="589.41" y1="131.057" x2="397.332" y2="275.422" gradientUnits="userSpaceOnUse">
<stop stop-color="#82D37A"/>
<stop offset="1" stop-color="#67A961"/>
</linearGradient>
<linearGradient id="paint1_linear" x1="393.128" y1="76.1346" x2="403.189" y2="324.786" gradientUnits="userSpaceOnUse">
<stop stop-color="#82D37A"/>
<stop offset="1" stop-color="#67A961"/>
</linearGradient>
<linearGradient id="paint2_linear" x1="66.6808" y1="0" x2="66.6808" y2="104.79" gradientUnits="userSpaceOnUse">
<stop stop-color="#FFE68A"/>
<stop offset="0.526042" stop-color="#FDD852"/>
<stop offset="1" stop-color="#F4D152"/>
</linearGradient>
<linearGradient id="paint3_linear" x1="66.6808" y1="0" x2="66.6808" y2="104.79" gradientUnits="userSpaceOnUse">
<stop stop-color="#FFE68A"/>
<stop offset="0.526042" stop-color="#FDD852"/>
<stop offset="1" stop-color="#F4D152"/>
</linearGradient>
<linearGradient id="paint4_linear" x1="293.396" y1="263.991" x2="293.396" y2="662.999" gradientUnits="userSpaceOnUse">
<stop stop-color="#FFE68A"/>
<stop offset="0.526042" stop-color="#FDD852"/>
<stop offset="1" stop-color="#F4D152"/>
</linearGradient>
</defs>
</svg>
