<svg width="1214" height="664" viewBox="0 0 1214 664" fill="none" xmlns="http://www.w3.org/2000/svg">
<path opacity="0.1" d="M1213.61 419.839C1213.7 389.253 1206.43 359.095 1192.41 331.909C1178.4 304.723 1158.05 281.307 1133.08 263.635C1133.77 257.028 1134.13 250.39 1134.14 243.747C1134.14 138.7 1050.15 53.5725 946.597 53.5725C914.7 53.5384 883.339 61.7666 855.568 77.4556C782.245 29.2021 686.532 0 581.824 0C411.507 0 264.903 77.2966 199.887 188.14C196.273 187.928 192.639 187.811 188.973 187.811C85.4092 187.811 1.42664 272.97 1.42664 378.017C1.35405 415.122 12.0744 451.447 32.2817 482.566V482.566C32.2817 577.081 121.488 653.7 231.483 653.7H1029.5C1115.9 653.7 1185.94 593.536 1185.94 519.323C1204.11 489.326 1213.68 454.91 1213.61 419.839V419.839Z" fill="#FDD852"/>
<path opacity="0.1" d="M727.571 465.759C750.988 464.424 780.042 448.541 802.632 441.516C829.369 433.223 856.211 425.244 883.16 417.58C976.976 390.885 1071.8 368.14 1167.63 349.343C1176.57 347.584 1185.53 345.867 1194.5 344.193C1180.52 313.997 1158.87 287.995 1131.71 268.782C1132.4 262.172 1132.76 255.53 1132.77 248.883C1132.77 143.836 1048.82 58.6775 945.22 58.6775C913.326 58.6436 881.967 66.8758 854.202 82.5711C780.879 34.3389 685.177 5.14734 580.469 5.14734C431.682 5.14734 301.067 64.092 227.055 152.853L574.896 211.618L788.232 247.644C545.026 254.902 301.067 262.118 58.5603 245.079C26.5482 276.054 6.28677 317.185 1.23872 361.442C-3.80933 405.699 6.66937 450.336 30.884 487.724V487.724C30.884 491.528 31.0429 495.3 31.329 499.041C37.5064 500.81 43.4719 502.527 48.8228 503.65C134.727 521.797 221.182 536.984 308.188 549.212C244.072 588.745 165.992 594.339 92.0326 611.081C127.847 640.643 176.481 658.762 230.075 658.762H1028.07C1114.48 658.762 1184.52 598.61 1184.52 524.396C1197.48 503.014 1206.12 479.293 1209.95 454.58C1050.06 470.019 888.172 456.615 727.571 465.759Z" fill="#FDD852"/>
<g clip-path="url(#clip0)">
<path d="M207.763 286.537C208.601 338.269 227.945 343.869 251.699 338.474C278.836 332.31 301.11 312.991 312.087 287.43L319.658 269.802C324.691 258.083 324.86 244.845 320.129 233.001C315.397 221.157 306.152 211.676 294.428 206.646H294.428C288.623 204.155 282.383 202.831 276.066 202.75C269.749 202.669 263.478 203.833 257.61 206.175C251.743 208.516 246.395 211.99 241.871 216.398C237.347 220.806 233.736 226.061 231.243 231.864C206.882 241.43 202.07 261.233 207.763 286.537Z" fill="#2F2E41"/>
<path d="M360.508 182.418L367.799 170.086C368.69 168.58 369.227 166.892 369.372 165.149C369.516 163.406 369.264 161.652 368.634 160.02C368.004 158.388 367.012 156.92 365.733 155.726C364.455 154.532 362.922 153.643 361.25 153.126V153.126C359.486 152.579 357.616 152.463 355.797 152.785C353.979 153.108 352.263 153.86 350.795 154.979C349.326 156.099 348.146 157.553 347.353 159.22C346.56 160.888 346.178 162.721 346.237 164.566L346.666 177.822L312.401 271.683L331.086 275.582L360.508 182.418Z" fill="#9F616A"/>
<path d="M180.244 413.801L171.27 424.969C170.174 426.333 169.401 427.927 169.01 429.632C168.618 431.337 168.618 433.108 169.009 434.813C169.4 436.518 170.173 438.113 171.268 439.477C172.364 440.841 173.754 441.939 175.335 442.689V442.689C177.004 443.481 178.837 443.863 180.683 443.803C182.53 443.743 184.335 443.242 185.948 442.344C187.562 441.445 188.937 440.174 189.959 438.636C190.981 437.098 191.621 435.338 191.825 433.503L193.29 420.321L240.583 332.297L222.645 325.777L180.244 413.801Z" fill="#9F616A"/>
<path d="M235.691 506.716L237.012 522.576L237.322 526.277L325.156 517.833C328.184 517.492 331.088 516.441 333.633 514.767C336.178 513.093 338.292 510.842 339.804 508.198C341.315 505.553 342.18 502.59 342.33 499.548C342.48 496.506 341.909 493.472 340.665 490.692L312.338 429.907L302.553 408.911L260.153 399.131C225.189 425.88 256.647 455.401 296.226 485.264C297.775 486.438 299.341 487.611 300.923 488.785L235.691 506.716Z" fill="#2F2E41"/>
<path d="M206.095 561.638C207.165 561.79 208.257 561.666 209.265 561.276C210.273 560.886 211.164 560.244 211.853 559.41L240.584 524.646L238.953 508.345L229.156 502.47C228.355 501.99 227.459 501.689 226.529 501.59C225.6 501.49 224.66 501.594 223.776 501.895C222.891 502.195 222.082 502.684 221.405 503.328C220.728 503.973 220.2 504.756 219.857 505.625L201.118 553.077C200.768 553.963 200.623 554.917 200.695 555.867C200.766 556.817 201.052 557.739 201.531 558.563C202.01 559.386 202.67 560.091 203.46 560.624C204.251 561.156 205.151 561.503 206.095 561.638V561.638Z" fill="#2F2E41"/>
<path opacity="0.2" d="M230.799 503.456L232.43 523.016L237.012 522.576L320.264 514.573C323.292 514.232 326.196 513.181 328.741 511.507C331.286 509.833 333.4 507.582 334.911 504.938C336.423 502.293 337.288 499.33 337.438 496.288C337.588 493.246 337.017 490.212 335.773 487.432L312.339 434.992V429.907L302.554 408.911L260.153 399.131C225.189 425.88 256.647 455.401 296.226 485.264L296.031 485.525L230.799 503.456Z" fill="black"/>
<path d="M197.941 555.117C199.011 555.27 200.102 555.146 201.111 554.756C202.119 554.366 203.01 553.723 203.698 552.89L232.429 518.126L230.799 501.825L221.002 495.95C220.201 495.469 219.304 495.169 218.375 495.069C217.446 494.97 216.506 495.074 215.621 495.374C214.736 495.675 213.927 496.164 213.251 496.808C212.574 497.452 212.046 498.236 211.702 499.105L192.963 546.557C192.613 547.443 192.469 548.397 192.54 549.347C192.612 550.297 192.898 551.219 193.377 552.042C193.856 552.866 194.515 553.571 195.306 554.103C196.096 554.636 196.997 554.983 197.941 555.117V555.117Z" fill="#2F2E41"/>
<path d="M227.537 500.195L229.168 519.756L317.002 511.31C320.03 510.969 322.934 509.919 325.479 508.245C328.025 506.572 330.139 504.321 331.651 501.677C333.162 499.034 334.029 496.07 334.179 493.029C334.33 489.987 333.761 486.953 332.518 484.173L309.077 431.732V402.391L251.999 392.61C215.659 420.41 251.067 451.206 292.769 482.264L227.537 500.195Z" fill="#2F2E41"/>
<path d="M282.984 270.355C296.494 270.355 307.446 259.408 307.446 245.904C307.446 232.4 296.494 221.453 282.984 221.453C269.474 221.453 258.522 232.4 258.522 245.904C258.522 259.408 269.474 270.355 282.984 270.355Z" fill="#9F616A"/>
<path d="M250.368 286.656L284.615 309.477L313.969 302.956L297.661 286.656V262.205L271.568 260.574C271.021 270.339 265.423 279.274 250.368 286.656Z" fill="#9F616A"/>
<path d="M245.476 400.761L309.077 408.911L323.754 340.448C330.573 322.275 326.66 306.219 314.036 291.881C313.554 289.469 312.268 287.29 310.388 285.702C308.508 284.113 306.145 283.208 303.684 283.133L297.661 283.395C298.343 305.014 282.408 299.807 258.522 281.765L255.638 282.63C251.91 283.748 248.709 286.171 246.621 289.455C244.533 292.738 243.698 296.664 244.268 300.513L246.898 318.257C248.013 325.292 249.746 332.214 252.075 338.946C258.596 358.425 256.266 379.047 245.476 400.761Z" fill="#FDD852"/>
<path d="M216.122 327.407L245.476 337.188L258.522 289.916L254.102 287.908C250.438 286.243 246.277 286.034 242.464 287.323C238.651 288.612 235.472 291.303 233.571 294.85L216.122 327.407Z" fill="#FDD852"/>
<path d="M302.554 283.396L318.862 301.326L338.431 270.354L313.969 257.314L302.554 283.396Z" fill="#FDD852"/>
<path d="M254.445 238.568C269.817 244.362 286.222 243.761 303.369 238.568V219.007H254.445V238.568Z" fill="#2F2E41"/>
<path d="M1017.37 574.35L1000.51 581.374L888.079 428.258L806.569 584.184L785.489 579.97L847.325 365.045H918.997L1017.37 574.35Z" fill="#2F2E41"/>
<path d="M1040 610.069C1039.06 610.324 1038.09 610.391 1037.13 610.268C1036.16 610.144 1035.24 609.832 1034.4 609.348L998.832 588.88C997.872 588.328 997.052 587.562 996.436 586.642C995.819 585.722 995.423 584.672 995.278 583.574C995.133 582.477 995.242 581.36 995.598 580.312C995.954 579.263 996.546 578.31 997.33 577.527L1000.51 574.35L1017.37 572.946L1043.15 597.684C1044.09 598.584 1044.77 599.716 1045.13 600.965C1045.49 602.215 1045.51 603.536 1045.18 604.796C1044.86 606.055 1044.21 607.206 1043.3 608.133C1042.39 609.059 1041.25 609.727 1040 610.069Z" fill="#2F2E41"/>
<path d="M764.269 615.688C765.204 615.943 766.18 616.01 767.142 615.886C768.103 615.763 769.03 615.45 769.87 614.967L805.435 594.499C806.395 593.946 807.215 593.18 807.831 592.26C808.447 591.34 808.844 590.291 808.989 589.193C809.134 588.095 809.025 586.979 808.669 585.93C808.313 584.882 807.721 583.929 806.937 583.146L803.759 579.969L786.894 578.564L761.114 603.303C760.176 604.202 759.494 605.335 759.137 606.584C758.78 607.833 758.761 609.155 759.082 610.414C759.403 611.673 760.052 612.825 760.963 613.751C761.874 614.678 763.015 615.346 764.269 615.688V615.688Z" fill="#2F2E41"/>
<path d="M799.542 141.693L792.516 145.907L777.954 122.255C777.06 120.802 776.528 119.156 776.404 117.454C776.279 115.753 776.566 114.047 777.24 112.48C777.914 110.913 778.954 109.531 780.274 108.45C781.595 107.369 783.155 106.622 784.825 106.27C786.31 105.958 787.844 105.966 789.325 106.295C790.807 106.624 792.2 107.266 793.413 108.177C794.626 109.088 795.629 110.249 796.357 111.579C797.084 112.91 797.519 114.381 797.631 115.894L799.542 141.693Z" fill="#FFB9B9"/>
<path d="M994.193 325.836L997.109 318.181L1023.18 327.769C1024.79 328.358 1026.22 329.323 1027.37 330.583C1028.52 331.843 1029.35 333.361 1029.79 335.009C1030.23 336.657 1030.27 338.387 1029.9 340.052C1029.53 341.718 1028.77 343.27 1027.67 344.578V344.578C1026.7 345.741 1025.49 346.683 1024.12 347.34C1022.75 347.997 1021.26 348.354 1019.74 348.387C1018.23 348.421 1016.72 348.129 1015.33 347.533C1013.93 346.937 1012.68 346.049 1011.66 344.93L994.193 325.836Z" fill="#FFB9B9"/>
<path d="M883.864 225.976C895.506 225.976 904.944 216.543 904.944 204.905C904.944 193.268 895.506 183.834 883.864 183.834C872.222 183.834 862.784 193.268 862.784 204.905C862.784 216.543 872.222 225.976 883.864 225.976Z" fill="#FFB9B9"/>
<path d="M902.133 249.857H872.621V217.548L897.917 214.739L902.133 249.857Z" fill="#FFB9B9"/>
<path d="M923.213 373.473H843.108C845.933 328.798 848.17 285.624 843.108 261.095L847.766 238.747C848.412 235.651 850.199 232.91 852.774 231.071C855.348 229.232 858.521 228.429 861.66 228.821L872.621 230.191C880.043 243.234 889.014 243.108 899.322 231.595H912.524C914.285 231.595 916.027 231.946 917.65 232.628C919.272 233.309 920.743 234.307 921.975 235.563C923.207 236.819 924.176 238.309 924.826 239.944C925.475 241.579 925.792 243.327 925.757 245.086C929.196 260.827 930.34 276.981 929.153 293.048L923.213 373.473Z" fill="#3F3D56"/>
<path d="M788.299 141.692L799.542 136.074L859.973 235.81L843.109 261.095L788.299 141.692Z" fill="#3F3D56"/>
<path d="M994.353 329.833L1003.96 321.732L952.908 250.225C947.913 243.229 941.028 237.801 933.058 234.575C925.088 231.35 916.363 230.461 907.907 232.013L906.296 232.309L925.6 266.077L951.027 285.319L994.353 329.833Z" fill="#3F3D56"/>
<path d="M908.243 192.467C908.243 192.467 912.182 183.805 901.94 179.868C901.94 179.868 893.275 165.693 875.942 175.143C875.942 175.143 864.125 179.868 864.125 192.467C864.125 205.067 860.186 207.429 860.186 207.429C860.186 207.429 866.052 201.414 867.628 196.689C869.203 191.964 881.457 190.892 886.184 195.617C890.911 200.342 902.728 199.554 902.728 199.554L901.94 216.879C901.94 216.879 905.88 206.642 907.455 206.642C909.031 206.642 910.607 192.467 908.243 192.467Z" fill="#2F2E41"/>
<path d="M906.297 664C977.533 664 1035.28 660.994 1035.28 657.285C1035.28 653.576 977.533 650.57 906.297 650.57C835.06 650.57 777.312 653.576 777.312 657.285C777.312 660.994 835.06 664 906.297 664Z" fill="#E6E6E6"/>
<path d="M262.292 660.834C299.946 660.834 330.47 659.245 330.47 657.285C330.47 655.325 299.946 653.736 262.292 653.736C224.639 653.736 194.114 655.325 194.114 657.285C194.114 659.245 224.639 660.834 262.292 660.834Z" fill="#E6E6E6"/>
<path d="M783.193 169.616L368.719 206.746C366.684 206.926 364.66 206.292 363.092 204.983C361.524 203.673 360.54 201.796 360.355 199.762L351.141 96.994C350.961 94.9597 351.595 92.9372 352.905 91.37C354.215 89.8029 356.094 88.819 358.128 88.6343L772.602 51.504C774.638 51.3241 776.661 51.9584 778.229 53.2678C779.797 54.5771 780.781 56.4547 780.966 58.4885L790.18 161.256C790.36 163.291 789.726 165.313 788.416 166.88C787.106 168.448 785.227 169.431 783.193 169.616V169.616Z" fill="#FDD852"/>
<path d="M417.152 175.228C435.027 175.228 449.518 160.744 449.518 142.877C449.518 125.009 435.027 110.525 417.152 110.525C399.276 110.525 384.786 125.009 384.786 142.877C384.786 160.744 399.276 175.228 417.152 175.228Z" fill="white"/>
<path d="M489.677 114.725C488.254 114.855 486.941 115.545 486.026 116.642C485.111 117.739 484.668 119.154 484.796 120.576C484.924 121.999 485.611 123.313 486.706 124.229C487.802 125.146 489.217 125.591 490.64 125.466L743.929 102.775C744.636 102.713 745.323 102.512 745.951 102.184C746.58 101.857 747.138 101.408 747.593 100.864C748.048 100.321 748.391 99.6929 748.603 99.0166C748.815 98.3403 748.892 97.6289 748.828 96.923C748.765 96.2171 748.563 95.5306 748.234 94.9027C747.905 94.2749 747.456 93.718 746.911 93.264C746.367 92.81 745.738 92.4677 745.061 92.2567C744.384 92.0458 743.672 91.9703 742.966 92.0345L489.677 114.725Z" fill="white"/>
<path d="M492.567 146.948C491.86 147.01 491.173 147.21 490.544 147.538C489.915 147.866 489.357 148.314 488.902 148.858C488.446 149.402 488.103 150.03 487.891 150.706C487.678 151.383 487.602 152.094 487.665 152.8C487.728 153.507 487.93 154.193 488.26 154.821C488.589 155.449 489.038 156.006 489.583 156.46C490.128 156.914 490.757 157.257 491.434 157.467C492.111 157.678 492.823 157.753 493.53 157.689L746.819 134.998C747.525 134.936 748.212 134.735 748.841 134.407C749.47 134.079 750.027 133.63 750.482 133.087C750.937 132.543 751.281 131.915 751.493 131.239C751.705 130.563 751.781 129.851 751.718 129.146C751.655 128.44 751.453 127.753 751.124 127.125C750.795 126.497 750.345 125.941 749.801 125.487C749.256 125.033 748.628 124.69 747.951 124.479C747.274 124.268 746.562 124.193 745.856 124.257L492.567 146.948Z" fill="white"/>
</g>
<defs>
<clipPath id="clip0">
<rect width="876.704" height="612.527" fill="white" transform="translate(168.713 51.4729)"/>
</clipPath>
</defs>
</svg>
